<svg width="40" height="40" viewBox="0 0 40 40" fill="none" xmlns="http://www.w3.org/2000/svg">
<g clip-path="url(#clip0_504_623)">
<path fill-rule="evenodd" clip-rule="evenodd" d="M26.2735 6.66669C27.2019 6.66672 28.112 6.92524 28.9018 7.4133C29.6916 7.90136 30.3299 8.59967 30.7452 9.43002L33.0552 14.0484C33.4618 13.8817 33.8618 13.7017 34.2552 13.5084C34.6508 13.3108 35.1087 13.2784 35.5281 13.4185C35.9476 13.5585 36.2942 13.8594 36.4918 14.255C36.6894 14.6506 36.7218 15.1085 36.5817 15.528C36.4417 15.9475 36.1408 16.2941 35.7452 16.4917C35.3445 16.67 34.9417 16.8433 34.5368 17.0117L36.1385 20.2167C36.4861 20.9116 36.667 21.678 36.6668 22.455V26.6667C36.6668 27.3702 36.5184 28.0657 36.2312 28.7079C35.944 29.35 35.5245 29.9244 35.0002 30.3934V32.5C35.0002 33.1631 34.7368 33.7989 34.2679 34.2678C33.7991 34.7366 33.1632 35 32.5002 35C31.8371 35 31.2012 34.7366 30.7324 34.2678C30.2636 33.7989 30.0002 33.1631 30.0002 32.5V31.6667H10.0002V32.5C10.0002 33.1631 9.73677 33.7989 9.26793 34.2678C8.79909 34.7366 8.1632 35 7.50016 35C6.83712 35 6.20124 34.7366 5.7324 34.2678C5.26356 33.7989 5.00016 33.1631 5.00016 32.5V30.3934C3.97683 29.4767 3.3335 28.1467 3.3335 26.6667V22.4534C3.33381 21.6775 3.51469 20.9123 3.86183 20.2184L5.45016 17.0384C5.04794 16.8695 4.65072 16.6878 4.2585 16.4934C3.86488 16.2932 3.56568 15.9464 3.42538 15.5277C3.28509 15.109 3.31494 14.6519 3.5085 14.255C3.60626 14.0591 3.74168 13.8843 3.90702 13.7407C4.07236 13.5971 4.26438 13.4875 4.4721 13.4182C4.67982 13.3488 4.89916 13.3211 5.1176 13.3366C5.33604 13.3521 5.54929 13.4104 5.74516 13.5084C6.13961 13.7028 6.53961 13.8828 6.94516 14.0484L9.25516 9.43169C9.67024 8.60103 10.3084 7.90237 11.0982 7.41401C11.888 6.92565 12.7982 6.66687 13.7268 6.66669H26.2735ZM12.5002 21.6667C11.8371 21.6667 11.2012 21.9301 10.7324 22.3989C10.2636 22.8678 10.0002 23.5036 10.0002 24.1667C10.0002 24.8297 10.2636 25.4656 10.7324 25.9345C11.2012 26.4033 11.8371 26.6667 12.5002 26.6667C13.1632 26.6667 13.7991 26.4033 14.2679 25.9345C14.7368 25.4656 15.0002 24.8297 15.0002 24.1667C15.0002 23.5036 14.7368 22.8678 14.2679 22.3989C13.7991 21.9301 13.1632 21.6667 12.5002 21.6667ZM27.5002 21.6667C26.8371 21.6667 26.2012 21.9301 25.7324 22.3989C25.2636 22.8678 25.0002 23.5036 25.0002 24.1667C25.0002 24.8297 25.2636 25.4656 25.7324 25.9345C26.2012 26.4033 26.8371 26.6667 27.5002 26.6667C28.1632 26.6667 28.7991 26.4033 29.2679 25.9345C29.7368 25.4656 30.0002 24.8297 30.0002 24.1667C30.0002 23.5036 29.7368 22.8678 29.2679 22.3989C28.7991 21.9301 28.1632 21.6667 27.5002 21.6667ZM26.2735 10H13.7268C13.4525 9.99998 13.1824 10.0677 12.9405 10.197C12.6986 10.3264 12.4924 10.5135 12.3402 10.7417L12.2368 10.9217L10.1202 15.1517C12.7002 15.925 16.1768 16.6667 20.0002 16.6667C23.5702 16.6667 26.8352 16.02 29.3502 15.305L29.8785 15.1517L27.7635 10.9217C27.6408 10.6764 27.4595 10.4651 27.2357 10.3067C27.0118 10.1482 26.7523 10.0475 26.4802 10.0134L26.2752 10H26.2735Z" fill="white"/>
</g>
<defs>
<clipPath id="clip0_504_623">
<rect width="40" height="40" fill="white"/>
</clipPath>
</defs>
</svg>
