<svg width="40" height="40" viewBox="0 0 40 40" fill="none" xmlns="http://www.w3.org/2000/svg">
<path d="M12.375 15.7917L18.5833 5.66668C18.75 5.3889 18.9583 5.18724 19.2083 5.06168C19.4583 4.93613 19.7222 4.8739 20 4.87501C20.2778 4.87613 20.5417 4.9389 20.7917 5.06335C21.0417 5.18779 21.25 5.3889 21.4167 5.66668L27.625 15.7917C27.7917 16.0695 27.875 16.3611 27.875 16.6667C27.875 16.9722 27.8056 17.25 27.6667 17.5C27.5278 17.75 27.3333 17.9517 27.0833 18.105C26.8333 18.2583 26.5417 18.3345 26.2083 18.3333H13.7917C13.4583 18.3333 13.1667 18.2572 12.9167 18.105C12.6667 17.9528 12.4722 17.7511 12.3333 17.5C12.1944 17.2489 12.125 16.9711 12.125 16.6667C12.125 16.3622 12.2083 16.0706 12.375 15.7917ZM29.1667 36.6667C27.0833 36.6667 25.3128 35.9378 23.855 34.48C22.3972 33.0222 21.6678 31.2511 21.6667 29.1667C21.6656 27.0822 22.395 25.3117 23.855 23.855C25.315 22.3983 27.0856 21.6689 29.1667 21.6667C31.2478 21.6645 33.0189 22.3939 34.48 23.855C35.9411 25.3161 36.67 27.0867 36.6667 29.1667C36.6633 31.2467 35.9344 33.0178 34.48 34.48C33.0256 35.9422 31.2544 36.6711 29.1667 36.6667ZM5 34.1667V24.1667C5 23.6945 5.16 23.2989 5.48 22.98C5.8 22.6611 6.19556 22.5011 6.66667 22.5H16.6667C17.1389 22.5 17.535 22.66 17.855 22.98C18.175 23.3 18.3344 23.6956 18.3333 24.1667V34.1667C18.3333 34.6389 18.1733 35.035 17.8533 35.355C17.5333 35.675 17.1378 35.8345 16.6667 35.8333H6.66667C6.19444 35.8333 5.79889 35.6733 5.48 35.3533C5.16111 35.0333 5.00111 34.6378 5 34.1667Z" fill="white"/>
</svg>
